<svg width="12" height="12" viewBox="0 0 12 12" fill="none" xmlns="http://www.w3.org/2000/svg">
<g clip-path="url(#clip0_45_215)">
<path d="M6 0.1875C2.78906 0.1875 0.1875 2.78906 0.1875 6C0.1875 9.21094 2.78906 11.8125 6 11.8125C9.21094 11.8125 11.8125 9.21094 11.8125 6C11.8125 2.78906 9.21094 0.1875 6 0.1875ZM6 2.4375C7.13906 2.4375 8.0625 3.36094 8.0625 4.5C8.0625 5.63906 7.13906 6.5625 6 6.5625C4.86094 6.5625 3.9375 5.63906 3.9375 4.5C3.9375 3.36094 4.86094 2.4375 6 2.4375ZM6 10.5C4.62422 10.5 3.39141 9.87656 2.56641 8.90156C3.00703 8.07187 3.86953 7.5 4.875 7.5C4.93125 7.5 4.9875 7.50938 5.04141 7.52578C5.34609 7.62422 5.66484 7.6875 6 7.6875C6.33516 7.6875 6.65625 7.62422 6.95859 7.52578C7.0125 7.50938 7.06875 7.5 7.125 7.5C8.13047 7.5 8.99297 8.07187 9.43359 8.90156C8.60859 9.87656 7.37578 10.5 6 10.5Z" fill="#157DB6"/>
</g>
<defs>
<clipPath id="clip0_45_215">
<rect width="12" height="12" fill="white"/>
</clipPath>
</defs>
</svg>
